<?xml version="1.0" encoding="UTF-8"?>
<svg width="97px" height="34px" viewBox="0 0 97 34" version="1.1" xmlns="http://www.w3.org/2000/svg" xmlns:xlink="http://www.w3.org/1999/xlink">
    <!-- Generator: Sketch 56 (81588) - https://sketch.com -->
    <title>tinder-1</title>
    <desc>Created with Sketch.</desc>
    <g id="Web" stroke="none" stroke-width="1" fill="none" fill-rule="evenodd">
        <g id="Login" transform="translate(-675.000000, -433.000000)" fill="#DF4723" fill-rule="nonzero" stroke="#DF4723" stroke-width="0.5">
            <g id="Group-3" transform="translate(563.000000, 434.000000)">
                <g id="tinder-1" transform="translate(113.000000, 0.000000)">
                    <path d="M12.9409692,0.0352422907 C13.1524229,0.133920705 13.2863436,0.338325991 13.4555066,0.500440529 C13.7303965,0.740088106 13.9348722,1.05726872 14.2027137,1.30396476 C14.5339912,1.62114537 14.7454449,2.02290749 15.0203348,2.38237885 C15.49963,3.10837004 15.9225374,3.88370044 16.1410396,4.72951542 C16.3665903,5.30748899 16.4018326,5.93480176 16.3877357,6.55506608 C16.4018326,7.11894273 16.2467665,7.67577093 15.9929515,8.18325991 C15.5560176,8.95154185 14.7665903,9.4660793 13.9418502,9.74096916 C12.9127753,9.9876652 11.7779736,10.0299559 10.784141,9.59295154 C10.4245991,9.39559471 10.015859,9.26167401 9.72687225,8.95154185 C9.05726872,8.40176211 8.66960352,7.50660793 8.79647577,6.63964758 C8.9938326,5.09603524 9.91718062,3.77092511 10.9039648,2.62907489 C10.9955947,2.79823789 10.9179912,2.99559471 10.9814978,3.17180617 C11.0660793,3.54537445 11.2,3.94008811 11.4819383,4.20792952 C11.8273128,3.8907489 12.1939031,3.57356828 12.4899383,3.20704846 C12.7577797,2.8123348 12.9762115,2.3753304 13.0678414,1.91013216 C13.0890573,1.31806167 13.1454449,0.697797357 12.9198238,0.133920705 L12.9409692,0.0352422907 L12.9409692,0.0352422907 Z M0.0281938326,7.07665198 C1.67753304,7.0907489 3.3339207,7.06255507 4.9833304,7.0907489 C4.9833304,8.73303965 4.99735683,10.3753304 4.97621145,12.0176211 C6.14632599,12.0387665 7.31629956,12.0246696 8.49339207,12.0246696 C8.50748899,12.1515419 8.51453744,12.2784141 8.51453744,12.4052863 C8.50044053,13.7585903 8.5215859,15.1048458 8.50044053,16.4581498 C7.32334802,16.4722467 6.15330396,16.4581498 4.97621145,16.4651982 C4.99735683,18.8969163 4.969163,21.3215859 4.99030837,23.753304 C5.03259912,23.9647577 5.06079295,24.1762115 5.05374449,24.3947137 C5.03252863,24.592141 5.15235242,24.7542555 5.19471366,24.9374449 C5.28634361,25.3603524 5.51894273,25.7409692 5.78671366,26.0723172 C6.1814978,26.4670308 6.6889163,26.7419207 7.23164758,26.861674 C7.72503965,26.9392775 8.21843172,26.9814978 8.71894273,26.9462555 C8.74706608,27.030837 8.76123348,27.1154185 8.76123348,27.2070485 C8.75418502,28.4757709 8.75418502,29.7444934 8.76123348,31.0061674 C8.76123348,31.1823789 8.72599119,31.3585903 8.69779736,31.5276828 C7.98590308,31.5276828 7.2740793,31.577022 6.56211454,31.5276828 C6.13920705,31.4360529 5.68817621,31.4783436 5.27929515,31.2950837 C4.14449339,31.0272423 3.05903084,30.4633656 2.24845815,29.6105022 C1.05726872,28.461674 0.415859031,26.8405286 0.155066079,25.2334802 C0.0845814978,25.0572687 0.126872247,24.8528634 0.0986079295,24.6625551 C-3.12250226e-17,24.2748899 0.0422202643,23.8660088 0.028123348,23.4713656 C0.0211453744,18.0088106 0.0211453744,12.539207 0.0281938326,7.07665198 Z M24.1057269,11.6440529 C24.4016916,11.5665198 24.7188722,11.6229075 25.0149075,11.5594714 C25.6351718,11.4819383 26.2483877,11.5806167 26.8616035,11.6017621 C27.2915595,11.5947137 27.7074185,11.7215859 28.130326,11.8061674 C29.7021322,12.1867841 31.1893568,13.0255507 32.2677709,14.2519824 C32.4580793,14.569163 32.7470661,14.8017621 32.9302555,15.1259912 C33.3884053,15.8519824 33.6915595,16.6625551 33.9522819,17.4801762 C34.114467,18.0792952 34.198978,18.6995595 34.2765815,19.3127753 C34.3118238,20.6731278 34.2906784,22.0405286 34.2977269,23.4008811 C34.2906784,26.1145374 34.3047753,28.8281938 34.2906784,31.5418502 C32.6413392,31.5207048 30.9990485,31.5348018 29.3567577,31.5277533 C29.3426608,31.5207048 29.3074185,31.492511 29.2933216,31.4784141 C29.2862731,27.6793656 29.2933216,23.8801762 29.2933216,20.0881057 C29.30037,19.6229075 29.2157885,19.1718062 29.1171101,18.7277533 C28.9408987,18.276652 28.715348,17.846696 28.4052159,17.4801762 C28.2218855,17.261674 27.9682115,17.1207048 27.7637357,16.9303965 C27.4465551,16.7189427 27.0729868,16.6202643 26.7135859,16.5215859 C26.5232775,16.507489 26.3329692,16.5215859 26.1567577,16.4581498 C25.4025727,16.4088106 24.6342907,16.4722467 23.9294449,16.7612335 C23.414837,17.0079295 22.9355419,17.3462555 22.5972863,17.8185022 C22.0404581,18.4810573 21.8571982,19.3832599 21.8712952,20.2290749 C21.8712952,23.9929515 21.8783436,27.7638767 21.8712952,31.5277533 C20.2077885,31.5418502 18.5444229,31.5207048 16.8809868,31.5418502 C16.852793,27.9118943 16.8809868,24.2748899 16.8668899,20.6449339 C16.8739383,20.1796652 16.8598414,19.7145374 16.8950837,19.2492687 C16.9867137,19.0166696 16.923207,18.7629956 16.9936916,18.5373744 C17.1205639,17.6774626 17.444793,16.8598414 17.8042643,16.0774626 C18.1566872,15.3937621 18.5795947,14.7382555 19.1293744,14.1955242 C19.5594009,13.7585198 20.0033833,13.30037 20.546185,12.9972863 C21.5964758,12.2643172 22.8370044,11.8202643 24.1057269,11.6440529 Z M10.1145374,12.0176211 C11.7779736,12.045815 13.4414097,12.0105727 15.1048458,12.0317181 C15.1048458,18.4810573 15.0977974,24.9232775 15.1048458,31.3656388 C15.1048458,31.4290749 15.1048458,31.5559471 15.0061674,31.5348018 L10.1287048,31.5348018 C10.0863436,30.4704846 10.1215859,29.3991189 10.107489,28.3348018 C10.1145374,22.9004405 10.107489,17.4590308 10.1145374,12.0176211 L10.1145374,12.0176211 Z M62.30837,25.0995595 C62.7312775,24.9374449 63.1400881,24.7259912 63.5699736,24.5780441 C64.1902379,24.3383965 64.7964053,24.0494097 65.4166696,23.8097621 C66.699489,23.2177621 68.0245991,22.72437 69.3215154,22.1674714 C69.6315771,21.9983084 69.984,21.9207753 70.2870837,21.7375154 C70.6324581,21.6035947 70.9779031,21.4837004 71.3162291,21.3286344 C71.6122643,21.1524229 71.9505903,21.0819383 72.253674,20.9269427 C72.6554361,20.7647577 73.0431013,20.5815683 73.4519119,20.4335507 C73.8677709,20.2008811 74.3329692,20.0881762 74.7488282,19.8625551 C74.8616035,19.785022 75.044793,19.8061674 75.1152775,19.6722467 C74.9955242,19.5031542 75.0588899,19.2917004 74.9955242,19.10837 C74.9038238,18.777163 74.8121938,18.4528634 74.7347313,18.1287048 C74.4175507,17.1489692 73.9594009,16.2115242 73.3391366,15.3939031 C72.5849515,14.3013921 71.5488282,13.4203348 70.3999295,12.7718767 C69.6457445,12.3137269 68.7999295,12.0529339 67.9541145,11.8273833 C67.4325286,11.7639471 66.9320881,11.5806872 66.4034537,11.5877357 C65.9241586,11.5242996 65.4307665,11.4961057 64.9585198,11.5806872 C64.1197533,11.5947841 63.3162291,11.7991894 62.5197533,12.0317885 C61.131207,12.5181322 59.8131454,13.2582203 58.7488282,14.2802467 C58.4316476,14.5762819 58.1708546,14.9216564 57.8677709,15.2247401 C57.3955242,15.8309075 56.9654978,16.4723172 56.6413392,17.1630661 C56.1831894,18.1991894 55.746185,19.284652 55.6968458,20.4335507 C55.5418502,20.9833304 55.5911189,21.561304 55.5840705,22.1251806 C55.5699736,22.484652 55.6263612,22.8370749 55.6968458,23.1824493 C55.6757004,23.5488987 55.8166696,23.8872952 55.8660088,24.2397181 C55.9858326,24.9868546 56.3171101,25.677533 56.6201938,26.3682819 C57.4519119,28.0740088 58.7628546,29.554185 60.4052159,30.5198238 C61.48363,31.1823789 62.6818678,31.6546256 63.9364934,31.830837 C64.9585198,31.993022 66.0087401,32.0211454 67.037815,31.8872952 C67.3902379,31.9154185 67.7285639,31.7603524 68.0809868,31.739207 C69.5823084,31.3867841 71.0554361,30.7524229 72.1902379,29.6881057 C72.5286344,29.4202643 72.845815,29.1030837 73.1136564,28.7646872 C73.5646872,28.3065374 73.8889868,27.7497797 74.2132159,27.2 C74.523348,26.6149075 74.7770925,25.9946432 74.9604229,25.353304 C74.8617445,25.3109427 74.7489692,25.3251101 74.6502907,25.3251101 C73.0009515,25.3322291 71.3586608,25.3180617 69.7093216,25.3251101 C69.5542555,25.3251101 69.5542555,25.5365639 69.4555066,25.6211454 C69.1735683,26.0299559 68.8140969,26.3753304 68.4334802,26.6995595 C67.8837004,27.0943436 67.2352423,27.3057974 66.5938326,27.4960352 C66.4246696,27.5172511 66.2625551,27.5101322 66.107489,27.5736388 C65.7127753,27.6017621 65.3110132,27.5877357 64.9092511,27.5806872 C64.4651982,27.4961057 64.0211454,27.3974273 63.5911894,27.2564581 C62.9287048,26.9181322 62.2801762,26.530467 61.7798062,25.9806167 C61.6528634,25.8256211 61.4485286,25.7057974 61.4061674,25.5013216 C61.5190132,25.4519824 61.6247401,25.3744493 61.7515419,25.353304 C61.9559471,25.3180617 62.1109427,25.1559471 62.30837,25.0995595 Z M60.2783436,21.5330396 C60.1797357,21.2863436 60.2712952,20.9973568 60.2571982,20.7365639 C60.3700441,20.377022 60.4052863,19.9964758 60.5391366,19.6369339 C60.8774626,18.8404581 61.2933216,18.0581498 61.899489,17.4307665 C62.1814273,17.1981674 62.4210749,16.9162291 62.745304,16.7400176 C62.9849515,16.6131454 63.2175507,16.4721762 63.4642467,16.3594009 C63.9223965,16.2255507 64.3664493,16.0140969 64.845815,16.0140969 C65.2827489,15.90837 65.7339207,15.9647577 66.1779031,15.9717357 C67.3408987,16.1339207 68.5110132,16.6342907 69.2651278,17.5576388 C69.3427313,17.7409692 69.0818678,17.7550661 68.976141,17.8255507 C68.5179912,18.0792952 68.0034537,18.2060969 67.545304,18.4669604 C67.3408987,18.5022026 67.1646872,18.6290749 66.9673304,18.692511 C65.5082996,19.3268722 64.0210749,19.88363 62.576141,20.5462555 C61.8008811,20.8493392 61.0325991,21.1735683 60.2783436,21.5330396 Z M55.0272423,3.40440529 C53.4837004,3.39030837 51.9400176,3.40440529 50.3964758,3.39735683 C50.28363,3.41145374 50.1497797,3.36211454 50.0580793,3.44669604 C50.0721762,6.75947137 50.0580793,10.0792952 50.0651982,13.3920705 C50.0580793,13.5118943 50.0863436,13.6317181 50.0370044,13.7444934 C49.8960352,13.723348 49.8255507,13.5894273 49.7198238,13.5118943 C49.0079295,12.8986784 48.2115242,12.3770925 47.323348,12.0740088 C46.7242291,11.8414097 46.0969868,11.7215859 45.4626256,11.6088106 C44.7436828,11.5947137 44.0176916,11.5735683 43.29163,11.615859 C43.2140969,11.6370044 43.1436123,11.6581498 43.0661498,11.6651982 C41.4520529,11.8907489 39.9436123,12.6449339 38.7031542,13.6810573 C38.0124053,14.3295154 37.3216564,15.0061674 36.8353128,15.8237885 C36.2643877,16.6343612 35.8978678,17.5647577 35.5454449,18.4810573 C35.3833304,19.0590308 35.2211454,19.6299559 35.1506608,20.2220264 C35.0167401,21.1312775 35.0731278,22.061674 35.0872247,22.9779736 C35.122467,23.2176211 35.2,23.4431718 35.2070485,23.6828194 C35.3339207,24.4581498 35.5594714,25.2193833 35.869533,25.9453744 C36.130326,26.6431718 36.5532335,27.277533 36.9408987,27.9118943 C37.2157885,28.2643172 37.48363,28.630837 37.8149075,28.9409692 C38.3082996,29.4273128 38.7945727,29.9559471 39.414837,30.2942731 C40.1478767,30.8511013 41.014837,31.1824493 41.860652,31.5066079 C42.1707841,31.5629956 42.4597709,31.739207 42.7769515,31.7462555 C43.044793,31.7674009 43.291489,31.8942731 43.5594009,31.8801057 C43.70037,31.8660088 43.8272423,31.9646872 43.9751894,31.9505903 C44.6588899,31.9717357 45.3496388,31.9717357 46.0333392,31.9505903 C46.1461145,31.9505903 46.2588899,31.9012511 46.3787137,31.8942026 C46.8508899,31.9012511 47.2878943,31.7179912 47.7460441,31.6545551 C48.345163,31.4360529 48.9866432,31.2950837 49.5434009,30.9709251 C50.3680705,30.5903084 51.115207,30.0546256 51.7848106,29.4483877 C52.6306256,28.7154185 53.314326,27.7991189 53.821815,26.7981674 C54.0403172,26.3541145 54.2870132,25.9241586 54.4279824,25.4448634 C54.6958943,24.7823084 54.8156476,24.0774626 54.907348,23.3796652 C55.0623436,22.7664493 55.0130749,22.1250396 55.0272423,21.4906784 C55.0272423,15.4643172 55.0272423,9.43788546 55.0272423,3.40440529 L55.0272423,3.40440529 Z M50.015859,22.49163 C49.9735683,23.238837 49.69163,23.9506608 49.3603524,24.6202643 C48.8035242,25.6704846 47.8660793,26.4740088 46.8017621,26.9814978 C46.6395771,27.0660793 46.4281233,27.0591013 46.3154185,27.2140969 C46.1180617,27.2140969 45.9207048,27.2212159 45.7303965,27.2917004 C45.1241586,27.3057974 44.4969163,27.362185 43.9048458,27.193022 C43.6511013,27.0731982 43.369163,27.0239295 43.1154185,26.8899383 C42.7982379,26.7137269 42.4387665,26.5939031 42.1779736,26.3260617 C41.6845815,25.9806872 41.3040352,25.5084405 40.9585903,25.0220969 C40.6837004,24.5498502 40.4088106,24.0635066 40.2819383,23.5278238 C40.1409692,23.2458855 40.1549956,22.9287048 40.077533,22.6326696 C40.0563877,21.8785551 40.0140969,21.1032247 40.1903084,20.3701145 C40.2679119,20.1375154 40.3172511,19.8908194 40.4017621,19.6582203 C40.6061674,19.2845815 40.7330396,18.868793 41.0008811,18.530467 C41.1418502,18.2344317 41.3885463,18.015859 41.5859736,17.762185 C42.1146079,17.1560176 42.8405991,16.7683524 43.5735683,16.4652687 C43.8484581,16.4019031 44.1162996,16.2609339 44.4053568,16.2609339 C44.9903789,16.1128458 45.5964758,16.2327401 46.1745198,16.338467 C46.9357533,16.6133568 47.6899383,16.9939736 48.2820088,17.5578502 C48.500511,17.7622555 48.6625551,18.016 48.8811278,18.2204053 C49.7832599,19.4325991 50.1990485,20.9903084 50.015859,22.49163 Z M74.0341797,12.8505859 L80.2802734,12.8505859 L84.8007813,25.3520508 L89.440918,12.8505859 L95.4648438,12.8505859 L87.7573242,31 L81.5878906,31 L74.0341797,12.8505859 Z" id="Shape"></path>
                </g>
            </g>
        </g>
    </g>
</svg>